<svg width="19" height="14" viewBox="0 0 19 14" fill="none" xmlns="http://www.w3.org/2000/svg">
    <path d="M18.986 1.40879C18.986 1.38633 19.001 1.36448 19 1.34229L13.202 7.11988L18.993 12.7129C18.9964 12.673 18.986 12.6327 18.986 12.5919V1.40879Z" fill="#E94085"/>
    <path d="M12.3167 8.00854L9.94983 10.3636C9.83005 10.4828 9.67536 10.5426 9.52059 10.5426C9.36904 10.5426 9.21748 10.4854 9.09853 10.3707L6.73806 8.09596L0.90918 13.9063C1.05091 13.959 1.20304 13.9999 1.36236 13.9999H17.6789C17.9155 13.9999 18.1374 13.9254 18.3303 13.8142L12.3167 8.00854Z" fill="#E94085"/>
    <path d="M9.51357 9.02083L18.3621 0.205818C18.1618 0.0826345 17.9286 0 17.6786 0H1.3621C1.03662 0 0.738387 0.130696 0.506104 0.330026L9.51357 9.02083Z" fill="#E94085"/>
    <path d="M0 1.62305V12.5913C0 12.7172 0.027983 12.8386 0.0583598 12.9546L5.81493 7.22171L0 1.62305Z" fill="#E94085"/>
    </svg>
    