<svg width="14" height="20" viewBox="0 0 14 20" fill="none" xmlns="http://www.w3.org/2000/svg">
    <path d="M7 0C3.14027 0 0 2.99074 0 6.66668C0 7.7702 0.289693 8.86434 0.840408 9.8348L6.6172 19.7852C6.69411 19.9178 6.84065 20 7 20C7.15935 20 7.30589 19.9178 7.3828 19.7852L13.1617 9.83152C13.7103 8.86434 14 7.77016 14 6.66664C14 2.99074 10.8597 0 7 0ZM7 10C5.07014 10 3.50002 8.50465 3.50002 6.66668C3.50002 4.82871 5.07014 3.33336 7 3.33336C8.92986 3.33336 10.5 4.82871 10.5 6.66668C10.5 8.50465 8.92986 10 7 10Z" fill="#E94085"/>
    </svg>
    