<svg width="15" height="11" viewBox="0 0 15 11" fill="none" xmlns="http://www.w3.org/2000/svg">
    <path d="M14.9893 1.10694C14.9893 1.0893 15.0011 1.07213 15.0003 1.05469L10.4229 5.5942L14.9949 9.9887C14.9975 9.95731 14.9893 9.92565 14.9893 9.89359V1.10694Z" fill="#A3A3A3"/>
    <path d="M9.72397 6.29248L7.8553 8.1429C7.76074 8.23653 7.63862 8.28348 7.51642 8.28348C7.39677 8.28348 7.27712 8.23854 7.18321 8.14846L5.31963 6.36116L0.717773 10.9264C0.829669 10.9678 0.949776 10.9999 1.07555 10.9999H13.9574C14.1441 10.9999 14.3193 10.9414 14.4716 10.8541L9.72397 6.29248Z" fill="#A3A3A3"/>
    <path d="M7.51093 7.08776L14.4968 0.161713C14.3386 0.0649268 14.1545 0 13.9572 0H1.0754C0.81844 0 0.582983 0.102689 0.399597 0.259305L7.51093 7.08776Z" fill="#A3A3A3"/>
    <path d="M0 1.27539V9.89322C0 9.99216 0.0220924 10.0875 0.0460747 10.1787L4.59085 5.67432L0 1.27539Z" fill="#A3A3A3"/>
    </svg>
    