<svg width="11" height="19" viewBox="0 0 11 19" fill="none" xmlns="http://www.w3.org/2000/svg">
    <path d="M9.77778 0.5H1.22222C0.898069 0.5 0.587192 0.635459 0.357981 0.876577C0.12877 1.1177 0 1.44472 0 1.78571V17.2143C0 17.5553 0.12877 17.8823 0.357981 18.1234C0.587192 18.3645 0.898069 18.5 1.22222 18.5H9.77778C10.1019 18.5 10.4128 18.3645 10.642 18.1234C10.8712 17.8823 11 17.5553 11 17.2143V1.78571C11 1.44472 10.8712 1.1177 10.642 0.876577C10.4128 0.635459 10.1019 0.5 9.77778 0.5ZM6.11111 17.2143H4.88889V15.9286H6.11111V17.2143ZM1.22222 14.6429V1.78571H9.77778V14.6429H1.22222Z" fill="#A3A3A3"/>
    </svg>
    