<svg width="14" height="13" viewBox="0 0 14 13" fill="none" xmlns="http://www.w3.org/2000/svg">
    <path d="M13.8553 10.832C13.3449 11.634 12.5387 12.6156 11.5254 12.8592C9.75025 13.2872 7.02587 12.8739 3.63582 9.72007L3.5939 9.68317C0.613118 6.92539 -0.161046 4.6301 0.0263312 2.80962C0.129882 1.77638 0.992805 0.841533 1.72013 0.231426C1.83511 0.133501 1.97147 0.0637809 2.11829 0.0278418C2.26511 -0.00809734 2.41832 -0.0092589 2.56567 0.0244502C2.71303 0.0581593 2.85043 0.125804 2.96689 0.221975C3.08336 0.318145 3.17566 0.440173 3.23641 0.578302L4.33355 3.03841C4.40485 3.19793 4.43127 3.3738 4.40999 3.54716C4.3887 3.72052 4.32052 3.88483 4.21274 4.02246L3.65801 4.74081C3.53898 4.88913 3.46715 5.06961 3.45177 5.25901C3.43639 5.44841 3.47817 5.63806 3.57171 5.80358C3.88237 6.34726 4.62694 7.1468 5.45289 7.88729C6.37991 8.72373 7.40802 9.48882 8.05891 9.74959C8.23308 9.82059 8.42457 9.83792 8.60869 9.79933C8.79281 9.76074 8.96113 9.66802 9.09196 9.5331L9.73545 8.88609C9.85962 8.76393 10.014 8.67679 10.1829 8.63358C10.3519 8.59036 10.5292 8.5926 10.697 8.64008L13.303 9.37812C13.4468 9.42212 13.5785 9.49834 13.6882 9.60095C13.798 9.70355 13.8827 9.82983 13.936 9.97013C13.9893 10.1104 14.0097 10.261 13.9957 10.4104C13.9817 10.5598 13.9337 10.704 13.8553 10.832Z" fill="#E94085"/>
    </svg>
    