<svg width="21" height="20" viewBox="0 0 21 20" fill="none" xmlns="http://www.w3.org/2000/svg">
    <path d="M0.212386 8.27137C0.125187 8.20796 0.0600422 8.1187 0.0261401 8.01618C-0.00776192 7.91367 -0.00871031 7.80306 0.0234287 7.69998L0.10741 7.43684C0.137382 7.33532 0.197785 7.24551 0.280419 7.17961C0.363053 7.1137 0.463913 7.07489 0.569305 7.06844L7.27129 6.53163L9.84021 0.339537C9.88193 0.233674 9.95613 0.143848 10.0521 0.0830341C10.1481 0.0222202 10.2608 -0.0064332 10.3741 0.00121277H10.6485C10.7555 -0.00106273 10.8605 0.0301584 10.9489 0.0905294C11.0374 0.1509 11.1048 0.237417 11.1419 0.338034L13.7213 6.53163L20.4233 7.06844C20.5287 7.07489 20.6296 7.1137 20.7122 7.17961C20.7948 7.24551 20.8552 7.33532 20.8852 7.43684L20.9692 7.69998C21.0049 7.79876 21.0097 7.90612 20.9829 8.00769C20.9561 8.10927 20.899 8.20022 20.8192 8.26836L15.7474 12.6215L17.2995 19.1519C17.3246 19.2542 17.319 19.3617 17.2835 19.4609C17.2481 19.5601 17.1843 19.6467 17.1001 19.7098L16.8001 19.8782C16.7133 19.937 16.611 19.9684 16.5062 19.9684C16.4014 19.9684 16.2991 19.937 16.2123 19.8782L10.5136 16.4077L4.77435 19.9097C4.68756 19.9686 4.58519 20 4.48042 20C4.37565 20 4.27329 19.9686 4.18649 19.9097L3.95554 19.7594C3.87135 19.6963 3.80755 19.6097 3.77208 19.5105C3.73661 19.4113 3.73105 19.3039 3.75608 19.2015L5.26774 12.6215L0.212386 8.27137Z" fill="#EB8900" />
</svg>
    