<svg width="15" height="19" viewBox="0 0 15 19" fill="none" xmlns="http://www.w3.org/2000/svg">
    <path d="M7.38709 9.17065C8.5769 9.17065 9.60718 8.74342 10.449 7.9005C11.2908 7.05771 11.7175 6.02651 11.7175 4.83519C11.7175 3.64428 11.2908 2.61294 10.4489 1.76988C9.60691 0.927229 8.57676 0.5 7.38709 0.5C6.19714 0.5 5.16713 0.927229 4.32532 1.77001C3.48351 2.6128 3.05664 3.64414 3.05664 4.83519C3.05664 6.02651 3.48351 7.05785 4.32546 7.90064C5.16741 8.74329 6.19755 9.17065 7.38709 9.17065Z" fill="#A3A3A3"/>
    <path d="M14.9636 14.3407C14.9394 13.99 14.8903 13.6074 14.818 13.2034C14.745 12.7963 14.651 12.4115 14.5386 12.0598C14.4224 11.6963 14.2644 11.3373 14.069 10.9933C13.8663 10.6363 13.6282 10.3254 13.361 10.0695C13.0816 9.80188 12.7395 9.58668 12.3439 9.42972C11.9496 9.27357 11.5127 9.19447 11.0454 9.19447C10.8619 9.19447 10.6844 9.26987 10.3416 9.4933C10.1306 9.63104 9.88386 9.79034 9.60843 9.96653C9.37291 10.1168 9.05385 10.2575 8.65977 10.385C8.27528 10.5095 7.8849 10.5727 7.49959 10.5727C7.11428 10.5727 6.72403 10.5095 6.33914 10.385C5.94546 10.2577 5.62641 10.1169 5.39116 9.96667C5.11833 9.79212 4.87143 9.63282 4.65731 9.49316C4.31493 9.26973 4.1373 9.19434 3.95376 9.19434C3.48629 9.19434 3.04955 9.27357 2.65546 9.42985C2.26014 9.58654 1.9179 9.80174 1.63821 10.0697C1.37114 10.3256 1.13288 10.6364 0.930419 10.9933C0.735227 11.3373 0.577208 11.6962 0.460888 12.06C0.348547 12.4117 0.254586 12.7963 0.181612 13.2034C0.109324 13.6068 0.0602173 13.9896 0.0359383 14.3411C0.0120709 14.6855 0 15.043 0 15.404C0 16.3436 0.298343 17.1043 0.886662 17.6653C1.46771 18.2188 2.23654 18.4997 3.17149 18.4997H11.8285C12.7635 18.4997 13.532 18.219 14.1132 17.6653C14.7017 17.1047 15 16.3439 15 15.4039C14.9999 15.0412 14.9877 14.6835 14.9636 14.3407Z" fill="#A3A3A3"/>
    </svg>
    