<svg width="24" height="28" viewBox="0 0 24 28" fill="none" xmlns="http://www.w3.org/2000/svg">
<path d="M1.23855 10.293C-1.24425 14.4007 0.334109 20.6344 3.07968 24.4141C4.45017 26.3038 5.8377 28 7.73813 28C7.77393 28 7.80989 27.9993 7.84666 27.998C8.73952 27.964 9.38476 27.7019 10.0087 27.4486C10.7091 27.164 11.4335 26.8698 12.5696 26.8698C13.6505 26.8698 14.3403 27.1545 15.0075 27.4297C15.6649 27.7009 16.3421 27.9814 17.3427 27.9636C19.4835 27.9256 20.7978 26.0952 21.9574 24.4805C23.1674 22.7945 23.7745 21.1576 23.9793 20.5321L23.9876 20.5072C24.0265 20.396 23.9714 20.2747 23.8597 20.2257C23.8566 20.2243 23.8453 20.2199 23.842 20.2186C23.4651 20.0716 20.1584 18.673 20.1236 14.861C20.0913 11.7639 22.6042 10.1239 23.1082 9.82657L23.1317 9.81263C23.1864 9.7791 23.2245 9.72595 23.2373 9.66519C23.2503 9.60449 23.2367 9.54132 23.2002 9.4903C21.4656 7.07018 18.807 6.70547 17.7368 6.66161C17.5814 6.64684 17.4211 6.6394 17.26 6.6394C16.003 6.6394 14.7986 7.0921 13.8311 7.45583C13.1633 7.7069 12.5864 7.92373 12.1885 7.92373C11.7414 7.92373 11.1613 7.70422 10.4895 7.45014C9.59113 7.11021 8.57289 6.72499 7.49493 6.72499C7.46923 6.72499 7.44388 6.72526 7.41899 6.7257C4.91255 6.76081 2.54423 8.12793 1.23855 10.293Z" fill="#D85C8E"/>
<path d="M17.7389 0.000173963C16.221 0.0591267 14.4004 0.949871 13.312 2.16518C12.3871 3.18668 11.4837 4.88981 11.7218 6.60649C11.7367 6.7139 11.8283 6.7968 11.9417 6.80517C12.044 6.81277 12.1488 6.81665 12.2528 6.81676C13.737 6.81676 15.338 6.03397 16.4313 4.77349C17.582 3.44251 18.1639 1.73447 17.9879 0.204485C17.9742 0.0845562 17.8634 -0.00447444 17.7389 0.000173963Z" fill="#D85C8E"/>
</svg>
