<svg width="24" height="28" viewBox="0 0 24 28" fill="none" xmlns="http://www.w3.org/2000/svg">
    <path d="M22.8361 11.9005L18.2396 9.16174L13.534 14.0162L18.2393 18.8704L22.8517 16.1225C23.5709 15.6717 24.0001 14.8842 24.0001 14.0162C24.0001 13.1482 23.5706 12.3607 22.8361 11.9005Z" fill="#FFCE00" />
    <path d="M13.5338 14.017L0.71654 0.699219C0.270738 1.15912 0 1.78316 0 2.47301V25.5204C0 26.2103 0.270738 26.8343 0.71654 27.2946L13.5338 14.017Z" fill="url(#paint0_linear_2_1070)" />
    <path d="M13.5338 14.0165L18.2395 9.16201L18.247 9.15431L11.942 5.40932L3.63053 0.37004C2.8821 -0.106308 1.97455 -0.122758 1.21018 0.32069C1.03511 0.43549 0.875655 0.550639 0.716537 0.698339L13.5338 14.0165Z" fill="#00F076" />
    <path d="M0.716537 27.2937C0.875655 27.4414 1.03511 27.5565 1.21018 27.6713C1.59219 27.8848 1.9905 28 2.38846 28C2.81832 28 3.23223 27.8687 3.61459 27.6388L11.9416 22.6237L18.2466 18.8787L18.2392 18.871L13.5338 14.0165L0.716537 27.2937Z" fill="#F63448" />
    <defs>
        <linearGradient id="paint0_linear_2_1070" x1="-5.72824" y1="20.6457" x2="7.56283" y2="7.76165" gradientUnits="userSpaceOnUse">
            <stop stop-color="#00E2FF" />
            <stop offset="1" stop-color="#00C5FF" />
        </linearGradient>
    </defs>
</svg>
    