<svg width="77" height="80" viewBox="0 0 77 80" fill="none" xmlns="http://www.w3.org/2000/svg">
    <rect width="77" height="80" rx="20" fill="white"/>
    <path d="M0.0213137 39.8436C0.0213137 31.7882 -0.0375709 23.7343 0.0404104 15.6805C0.0992943 9.65957 2.97346 5.18166 8.07885 2.13223C10.4835 0.700578 13.1715 0.0642916 15.9709 0.0197512C18.0907 -0.0168355 20.2105 0.00861498 22.3367 0.00861498C34.9495 0.00861498 47.5618 0.00596571 60.1735 0.000663276C64.1267 -0.0088811 67.7123 1.0394 70.8363 3.47322C74.5476 6.36357 76.5051 10.2322 76.9618 14.8851C77.0127 15.4101 76.9921 15.9445 76.9921 16.4758C76.9921 32.1604 76.9947 47.8455 77 63.5312C77 67.1405 76.0706 70.4254 73.9205 73.3508C70.8252 77.5646 66.5728 79.5896 61.4499 79.9761C60.9231 80.0159 60.39 79.9889 59.8584 79.9889C45.5513 79.9889 31.243 79.9926 16.9337 80C13.6871 80 10.5854 79.4178 7.81467 77.7078C2.86047 74.652 0.0992908 70.2122 0.0467728 64.3266C-0.0343915 56.1645 0.0213137 47.9977 0.0213137 39.8436ZM10.7477 48.5545C10.3451 53.5366 14.4208 58.6699 18.7448 59.6323C20.1612 59.9505 20.9139 60.6265 21.5823 61.8164C22.9335 64.2216 25.1138 65.7264 27.6426 66.6904C31.042 67.9852 34.3522 67.508 37.3903 65.6771C38.7923 64.8324 39.8395 64.8101 41.0506 65.8362C41.5281 66.2354 42.1519 66.4613 42.7248 66.7301C47.27 68.8585 51.3712 67.9502 55.1143 64.8499C56.2602 63.8955 57.3026 62.8154 57.8643 61.4092C58.2304 60.4945 58.8749 60.1143 59.7661 59.968C61.13 59.7453 62.4398 59.3953 63.6461 58.662C68.839 55.498 70.8443 49.2528 68.0544 43.7727C66.9404 41.576 66.3611 39.7689 68.126 37.7868C71.4283 30.7622 67.4736 22.9533 59.8234 21.5312C58.6871 21.3212 58.3115 20.6785 57.8293 19.8036C54.4777 13.7048 47.6201 11.7673 41.5296 15.1444C41.1485 15.3294 40.7889 15.5556 40.457 15.8189C39.5944 16.584 38.7717 16.5458 37.8932 15.8459C37.5506 15.5967 37.1805 15.3875 36.7903 15.2223C32.1035 12.9826 27.7683 13.5791 23.7706 16.8576C22.7111 17.743 21.8445 18.836 21.2243 20.0693C20.7468 21.011 20.0625 21.3641 19.0567 21.6505C13.7826 23.1505 10.6475 27.5362 10.735 32.9844C10.7447 35.222 11.4182 37.4065 12.6702 39.2614C13.3577 40.2763 13.4039 41.0828 12.7323 42.1168C11.4416 44.102 10.5997 46.2591 10.7477 48.5545Z" fill="#D85C8E"/>
    <path d="M66.1791 33.0449C66.082 34.7947 65.202 36.7036 64.0227 38.4772C63.6758 39.0022 63.2111 39.4492 62.8068 39.9359C62.4233 40.3956 62.3867 40.8649 62.7607 41.3596C63.3973 42.2011 64.1007 43.006 64.637 43.9048C67.3632 48.4988 66.4083 52.2847 62.3851 55.6571C61.8254 56.1469 61.1354 56.4635 60.399 56.5686C59.3454 56.7117 58.8648 56.4413 58.6356 55.3246C57.6919 50.7417 55.0326 47.3487 51.4279 44.5077C49.5468 43.0283 47.0896 42.4397 45.5236 40.5197C47.4525 39.2726 49.4322 38.0939 51.3006 36.7624C55.0405 34.0948 57.6171 30.5967 58.6213 26.0361C58.8855 24.8224 59.5061 24.4661 60.6281 24.824C63.6153 25.7912 66.238 29.4657 66.1791 33.0449Z" fill="#F072B1"/>
    <path d="M31.6834 17.0834C33.364 16.9769 34.8552 17.8215 36.34 18.6312C37.0785 19.0337 37.7453 19.5698 38.436 20.0629C39.0375 20.4876 39.6073 20.451 40.1707 19.9961C40.5812 19.6636 40.9823 19.3152 41.412 19.0082C42.0152 18.5787 42.6215 18.1476 43.2613 17.7754C47.9147 15.0712 52.0779 17.3141 54.2853 20.1011C55.1049 21.1366 55.0237 21.8063 53.8858 22.3535C48.4287 24.9751 45.0978 29.4991 42.6247 34.8058C42.1329 35.862 41.6794 36.9342 41.178 37.9872C40.9314 38.5058 40.4587 38.7508 39.8953 38.7714C39.2858 38.7921 38.9611 38.4072 38.7129 37.8981C37.6498 35.7109 36.6153 33.5077 35.4854 31.3555C33.4334 27.3597 30.067 24.1925 25.9526 22.3869C25.5637 22.2257 25.1839 22.0436 24.8147 21.8413C24.3691 21.5788 24.3373 21.1589 24.5776 20.7548C25.8412 18.5771 28.7902 17.0405 31.6834 17.0834Z" fill="#F072B1"/>
    <path d="M47.513 64.7735C45.9078 64.6269 44.3542 64.1306 42.9614 63.3196C42.5031 63.0603 42.11 62.6833 41.6485 62.4352C40.8161 61.9882 40.3116 60.951 39.2947 60.9192C38.2778 60.8874 37.7033 61.8736 36.8884 62.3286C35.0296 63.3642 33.1883 64.3965 30.9443 64.177C28.398 63.9273 26.3005 62.8726 24.7599 60.7999C24.2825 60.1557 24.4051 59.6037 25.1849 59.3158C31.4282 57.0172 34.7877 51.9984 37.4614 46.3354C37.9563 45.2871 38.3255 44.1784 38.8348 43.1365C39.2645 42.2647 40.7445 42.225 41.1822 43.0649C41.4978 43.7353 41.7679 44.4262 41.9906 45.1328C42.8834 47.643 44.276 49.8923 45.7353 52.0891C47.5766 54.8601 49.9782 57.0537 52.994 58.5284C53.3743 58.7145 53.7563 58.899 54.1191 59.1137C54.8878 59.5655 55.0103 60.2034 54.4374 60.9558C53.535 62.1504 52.4688 63.1669 51.0842 63.7905C49.9288 64.3075 48.7368 64.7179 47.513 64.7735Z" fill="#F072B1"/>
    <path d="M13.9198 48.1265C13.7877 46.461 14.7155 44.6921 15.8821 43.0234C16.3022 42.4205 16.8465 41.9099 17.3319 41.3452C17.752 40.868 17.6772 40.3987 17.2842 39.9422C16.7351 39.3059 16.1304 38.6966 15.6466 38.0079C13.3421 34.7182 13.3549 30.735 15.368 27.9131C15.793 27.3182 16.2593 26.701 16.8417 26.2778C19.0698 24.6473 19.6968 23.9713 20.5021 27.3468C21.4681 31.427 24.1927 34.3905 27.4806 36.8593C29.0959 38.0747 30.9325 38.9003 32.699 39.8499C33.0459 40.036 33.5584 40.1362 33.4756 40.6962C33.404 41.1734 32.9361 41.2863 32.5796 41.4772C31.6486 41.9751 30.7017 42.4428 29.7739 42.9487C26.6851 44.6074 24.0782 47.0367 22.2065 50.0004C21.2412 51.5171 20.5666 53.2001 20.2172 54.9634C19.8846 56.6003 19.1987 56.8103 17.7616 55.8224C15.236 54.0885 13.888 51.7024 13.9198 48.1265Z" fill="#F072B1"/>
    <path d="M34.3588 45.0135C34.3786 45.1335 34.3786 45.2561 34.3588 45.3762C32.3567 49.9463 29.6226 53.8738 24.9135 56.0499C24.7217 56.1393 24.5251 56.2179 24.3246 56.2854C23.9252 56.4174 23.5178 56.0547 23.4971 55.6109C23.443 54.5085 23.8345 53.5286 24.331 52.5885C25.8588 49.7013 28.1187 47.5157 30.9276 45.8963C31.8492 45.3889 32.8011 44.9384 33.7779 44.5474C34.1614 44.3851 34.2903 44.7478 34.3588 45.0135Z" fill="#D85C8E"/>
    <path d="M23.1026 24.7493C26.4081 25.7705 28.6409 27.444 30.5124 29.6201C32.1039 31.4637 33.237 33.5969 34.2523 35.8001C34.3733 36.0625 34.4974 36.4284 34.125 36.6288C33.9518 36.7309 33.7452 36.76 33.5505 36.71C29.9936 35.1876 26.9921 32.967 24.8898 29.6646C24.445 28.953 24.0718 28.199 23.7758 27.4137C23.5116 26.7488 23.4113 26.0234 23.1026 24.7493Z" fill="#D85C8E"/>
    <path d="M45.8442 45.1073C50.5613 46.8666 53.6217 50.2342 55.2991 54.9157C55.3786 55.1384 55.1797 55.5059 55.019 55.7445C54.9617 55.8288 54.6052 55.7811 54.4269 55.7016C52.8936 55.0014 51.509 54.0138 50.348 52.7921C48.4571 50.8129 46.9466 48.5029 45.892 45.9774C45.7806 45.7181 45.884 45.3666 45.892 45.0564L45.8442 45.1073Z" fill="#D85C8E"/>
    <path d="M45.8905 36.1993C45.9732 34.2905 47.1907 32.8954 48.1185 31.4049C49.7879 28.7245 52.1783 26.8586 55.0923 25.6592C55.14 25.9773 55.3055 26.3146 55.2148 26.5627C53.5342 31.1615 50.4691 34.4241 45.8411 36.15L45.8905 36.1993Z" fill="#D85C8E"/>
    </svg>
    