<svg width="28" height="30" viewBox="0 0 28 30" fill="none" xmlns="http://www.w3.org/2000/svg">
    <path d="M6.00477 10.2789C7.08114 11.2146 7.77528 12.4402 8.01141 13.8244L8.33392 15.7275C8.38487 16.029 8.65024 16.25 8.9616 16.25H19.0378C19.3491 16.25 19.6145 16.029 19.6655 15.7275L19.988 13.8275C20.2241 12.4426 20.9183 11.2152 21.9959 10.2789C22.135 10.1574 22.2134 9.98285 22.2103 9.79975C22.2072 9.61723 22.1226 9.44514 21.9791 9.32854C21.5118 8.95014 20.9531 8.74992 20.3634 8.74992H14.6361V7.5H17.8179C19.2217 7.5 20.3634 6.37881 20.3634 4.99998V2.50002C20.3634 1.12119 19.2217 0 17.8179 0H10.1815C8.77767 0 7.63603 1.12119 7.63603 2.50002V5.00004C7.63603 6.37881 8.77767 7.5 10.1815 7.5H13.3633V8.74998H7.63603C7.04564 8.74998 6.487 8.9502 6.02088 9.32918C5.87734 9.44578 5.7928 9.61787 5.7897 9.80039C5.7866 9.98291 5.86493 10.1581 6.00477 10.2789Z" fill="#D53D76"/>
    <path d="M26.0909 10.0001C23.6803 10.0001 21.6419 11.6962 21.2436 14.0332L20.6557 17.5001L7.34428 17.5006L6.7564 14.0314C6.35805 11.6956 4.31968 10.0001 1.90909 10.0001C0.856347 10.0001 0 10.8411 0 11.8751C0 12.909 0.856347 13.7501 1.90909 13.7501C2.44662 13.7501 2.90152 14.1285 2.99041 14.6485L3.5783 18.1183C3.8884 19.9329 5.47247 21.2501 7.34428 21.2501H13.2968L12.9098 25.0511C10.2021 25.2177 7.63637 26.0059 7.63637 27.5001C7.63631 29.2176 10.935 30 14 30C17.065 30 20.3636 29.2176 20.3636 27.5C20.3636 26.0059 17.7979 25.2177 15.0902 25.051L14.7032 21.25H20.6557C22.5275 21.25 24.1116 19.9322 24.4217 18.1158L25.0096 14.6502C25.0985 14.1284 25.5534 13.7499 26.0909 13.7499C27.1437 13.7499 28 12.9089 28 11.8749C28 10.8411 27.1437 10.0001 26.0909 10.0001Z" fill="#D53D76"/>
    </svg>
    