<svg width="30" height="30" viewBox="0 0 30 30" fill="none" xmlns="http://www.w3.org/2000/svg">
    <path d="M25.7722 22.2156C25.6257 22.3019 25.4716 22.3729 25.3125 22.4291V30C25.9349 29.8255 26.8901 29.4781 27.7753 28.7505C29.2515 27.537 30 25.7569 30 23.4596V17.9347C29.6666 18.4794 29.2876 19.0056 28.8633 19.5098C27.4586 21.1793 26.0419 22.0566 25.7722 22.2156Z" fill="#D53D76"/>
    <path d="M20.918 22.5806C20.918 23.1292 20.7916 23.6487 20.5665 24.1118L23.5548 25.1525V22.4299L20.918 21.5116V22.5806Z" fill="#D53D76"/>
    <path d="M13.8867 19.0629L0 14.2267V16.9493L13.8867 21.7855V19.0629Z" fill="#D53D76"/>
    <path d="M17.4024 26.0963C15.8598 26.0963 14.547 25.0971 14.0747 23.7124L0 18.8107V21.1157C0 21.4898 0.23666 21.8227 0.589805 21.9457L23.5547 29.9435V27.0139L19.3057 25.5341C18.7567 25.8892 18.1034 26.0963 17.4024 26.0963Z" fill="#D53D76"/>
    <path d="M10.0781 7.32419C10.0781 9.42425 11.7867 11.1328 13.8867 11.1328C15.9868 11.1328 17.6953 9.42425 17.6953 7.32419C17.6953 5.50292 16.41 3.97702 14.6991 3.60372C14.4531 2.1496 13.536 0.892995 12.1834 0.216647L11.936 0.092955C11.502 -0.124077 10.974 0.0518807 10.7568 0.486002C10.5397 0.920124 10.7157 1.44811 11.1499 1.66514L11.3973 1.78884C12.1596 2.17005 12.7 2.84692 12.9103 3.64304C11.2819 4.07534 10.0781 5.56157 10.0781 7.32419Z" fill="#D53D76"/>
    <path d="M30 11.7407C30 11.498 29.9419 5.76333 24.8798 2.78038C24.6569 2.64901 24.3875 2.62259 24.1433 2.70802C23.4047 2.96653 21.3509 3.68185 18.7351 4.59234C19.1919 5.39988 19.4531 6.33205 19.4531 7.32416C19.4531 10.3935 16.9561 12.8906 13.8867 12.8906C11.1131 12.8906 8.80694 10.8513 8.38835 8.19345C4.79362 9.44473 1.73584 10.5096 0.588575 10.9112C0.235782 11.0346 -0.000292697 11.3677 2.72372e-07 11.7414C0.000293241 12.1151 0.236895 12.4478 0.589806 12.5707L15.6445 17.8136V22.5805C15.6445 23.5514 16.4315 24.3383 17.4024 24.3383C18.3732 24.3383 19.1602 23.5514 19.1602 22.5805V19.0379L24.1445 20.7738C24.2385 20.8066 24.3362 20.8227 24.4336 20.8227C24.5888 20.8227 24.7431 20.7816 24.8798 20.701C25.0889 20.5778 30 17.6162 30 11.7407ZM20.625 12.3267C20.1396 12.3267 19.7461 11.9331 19.7461 11.4478C19.7461 10.9624 20.1396 10.5688 20.625 10.5688C21.1104 10.5688 21.5039 10.9624 21.5039 11.4478C21.5039 11.9331 21.1104 12.3267 20.625 12.3267ZM22.3828 16.4282C21.8974 16.4282 21.5039 16.0347 21.5039 15.5493C21.5039 15.0639 21.8974 14.6704 22.3828 14.6704C22.8682 14.6704 23.2617 15.0639 23.2617 15.5493C23.2617 16.0347 22.8682 16.4282 22.3828 16.4282ZM24.1407 8.81103C23.6553 8.81103 23.2617 8.41752 23.2617 7.93213C23.2617 7.44674 23.6553 7.05322 24.1407 7.05322C24.626 7.05322 25.0196 7.44674 25.0196 7.93213C25.0196 8.41752 24.626 8.81103 24.1407 8.81103ZM25.3125 12.9126C24.8271 12.9126 24.4336 12.5191 24.4336 12.0337C24.4336 11.5483 24.8271 11.1548 25.3125 11.1548C25.7979 11.1548 26.1914 11.5483 26.1914 12.0337C26.1914 12.5191 25.7979 12.9126 25.3125 12.9126Z" fill="#D53D76"/>
    </svg>
    