<svg width="33" height="30" viewBox="0 0 33 30" fill="none" xmlns="http://www.w3.org/2000/svg">
    <path d="M20.4951 13.8574C20.5772 13.7752 20.6834 13.7218 20.798 13.7051C20.9125 13.6885 21.0293 13.7095 21.1312 13.765C21.7087 14.0764 22.3704 14.1916 23.0181 14.0937C23.6657 13.9957 24.2648 13.6897 24.7265 13.2212L25.5027 12.4435L25.7453 12.1988L32.8228 4.27555C32.8737 4.23473 32.9157 4.18367 32.946 4.12561C32.9763 4.06754 32.9943 4.00375 32.9989 3.93829C33.0034 3.87282 32.9945 3.80712 32.9725 3.74535C32.9505 3.68358 32.9161 3.62709 32.8713 3.57948C32.7729 3.5074 32.6513 3.47522 32.5305 3.48932C32.4097 3.50342 32.2985 3.56277 32.2191 3.65561L25.3626 11.1493C25.2746 11.2387 25.1551 11.2892 25.0303 11.2897C24.9054 11.2902 24.7855 11.2407 24.6969 11.152C24.6082 11.0633 24.5581 10.9427 24.5576 10.8167C24.5571 10.6908 24.6062 10.5698 24.6942 10.4804L31.6585 3.11725C31.7516 3.03779 31.8112 2.92554 31.8253 2.80331C31.8393 2.68108 31.8066 2.55805 31.7339 2.45924C31.6879 2.41401 31.6331 2.37881 31.573 2.35582C31.5129 2.33283 31.4488 2.32254 31.3846 2.3256C31.3204 2.32866 31.2575 2.345 31.1999 2.3736C31.1422 2.4022 31.091 2.44246 31.0494 2.49187L23.9826 9.75712C23.9391 9.8014 23.8874 9.83659 23.8303 9.86069C23.7733 9.88479 23.7122 9.89732 23.6503 9.89757C23.5885 9.89783 23.5273 9.88579 23.4701 9.86216C23.4129 9.83853 23.3608 9.80376 23.3169 9.75984C23.273 9.71592 23.2382 9.66371 23.2143 9.60619C23.1904 9.54867 23.178 9.48697 23.1777 9.4246C23.1775 9.36224 23.1894 9.30043 23.2128 9.24272C23.2362 9.18501 23.2707 9.13251 23.3142 9.08824L30.5103 1.94806C30.6035 1.86861 30.6631 1.75635 30.6771 1.63412C30.6911 1.51189 30.6585 1.38887 30.5858 1.29006C30.5398 1.2482 30.486 1.21607 30.4275 1.19556C30.369 1.17504 30.307 1.16656 30.2452 1.17062C30.1834 1.17467 30.123 1.19118 30.0676 1.21917C30.0123 1.24715 29.963 1.28605 29.9228 1.33356L22.6027 8.37041C22.5141 8.45911 22.3942 8.50866 22.2693 8.50815C22.1445 8.50764 22.0249 8.45712 21.937 8.36769C21.8491 8.27827 21.8 8.15728 21.8005 8.03133C21.801 7.90538 21.8511 7.78479 21.9397 7.69609L29.346 0.778879C29.4397 0.700195 29.5006 0.588807 29.5166 0.466879C29.5326 0.344951 29.5025 0.221422 29.4323 0.120873C29.3858 0.0784815 29.3313 0.0460247 29.2721 0.0254608C29.2129 0.0048969 29.1502 -0.00334703 29.0877 0.00122701C29.0252 0.00580106 28.9643 0.0230983 28.9087 0.052074C28.853 0.0810497 28.8038 0.121103 28.7639 0.169816L20.8886 7.30999L19.8752 8.33779C19.4108 8.80355 19.1075 9.40796 19.0104 10.0613C18.9133 10.7147 19.0275 11.3823 19.3362 11.965C19.3912 12.0677 19.412 12.1855 19.3955 12.3011C19.379 12.4167 19.3261 12.5238 19.2445 12.6067C18.4899 13.3752 17.7281 14.1329 16.959 14.8798C17.3957 15.2985 17.8377 15.7172 18.2851 16.1305C19.0128 15.3692 19.7512 14.6079 20.4951 13.8574Z" fill="#D53D76"/>
    <path d="M6.92234 23.8906L3.86602 26.4193C3.67225 26.6134 3.51845 26.8443 3.4135 27.0986C3.30855 27.353 3.25452 27.6257 3.25452 27.9012C3.25452 28.1767 3.30855 28.4495 3.4135 28.7038C3.51845 28.9581 3.67225 29.189 3.86602 29.3831C4.05842 29.5786 4.28726 29.7337 4.53935 29.8396C4.79145 29.9455 5.06182 30 5.33489 30C5.60796 30 5.87833 29.9455 6.13042 29.8396C6.38252 29.7337 6.61136 29.5786 6.80375 29.3831L9.31026 26.2997C11.3478 23.7982 13.4554 21.3547 15.6331 18.9692C15.1695 18.4689 14.706 17.9631 14.237 17.4683C11.8581 19.6761 9.41986 21.8169 6.92234 23.8906Z" fill="#D53D76"/>
    <path d="M12.8462 12.1499C12.7627 12.0645 12.7095 11.9537 12.6949 11.8347C12.6803 11.7157 12.705 11.5952 12.7654 11.4919C13.4111 10.4291 13.6835 9.17797 13.5388 7.93999C13.3941 6.70201 12.8407 5.54918 11.9676 4.66709C9.81146 2.49186 3.75273 -1.38548 0.97132 1.40425C-1.81009 4.19397 2.04939 10.3335 4.20552 12.4979C5.0795 13.3774 6.2212 13.9349 7.44714 14.0809C8.67308 14.2269 9.91206 13.9528 10.965 13.3027C11.0674 13.2419 11.1869 13.2169 11.3049 13.2316C11.4228 13.2464 11.5326 13.3001 11.6172 13.3843C15.545 17.3613 19.2805 21.5251 22.8237 25.8755L25.314 28.9372C25.5064 29.1327 25.7353 29.2878 25.9874 29.3937C26.2395 29.4996 26.5098 29.5541 26.7829 29.5541C27.056 29.5541 27.3263 29.4996 27.5784 29.3937C27.8305 29.2878 28.0594 29.1327 28.2518 28.9372C28.4455 28.7431 28.5993 28.5122 28.7043 28.2579C28.8092 28.0035 28.8633 27.7308 28.8633 27.4553C28.8633 27.1798 28.8092 26.907 28.7043 26.6527C28.5993 26.3984 28.4455 26.1675 28.2518 25.9734L25.217 23.461C20.9083 19.8973 16.7847 16.1269 12.8462 12.1499Z" fill="#D53D76"/>
    </svg>
    