<svg width="30" height="25" viewBox="0 0 30 25" fill="none" xmlns="http://www.w3.org/2000/svg">
    <path d="M19.8196 7.96356H25.9783V10.2696H19.8196V7.96356Z" fill="#D53D76"/>
    <path d="M19.502 6.35207L19.8196 7.32318H25.9783L26.2862 6.37273C26.4474 5.8751 26.6105 5.37779 26.7933 4.88753C27.3778 3.31978 27.2978 1.57745 26.5612 0.0628913L26.5365 0.00836182H24.4181V2.44064L22.8673 4.09025L21.3165 2.44064V0.00842534H19.2277H19.2203C18.4733 1.5336 18.3966 3.29461 18.9921 4.87361C19.1762 5.36152 19.34 5.8566 19.502 6.35207Z" fill="#D53D76"/>
    <path d="M25.9783 10.9102H19.8197C17.3723 14.438 16.0809 18.6247 16.1206 22.9027L16.1212 22.9693H16.1441C16.1441 23.5488 16.9566 24.0715 18.2587 24.4406L19.5429 17.891C19.5769 17.7174 19.7468 17.6042 19.9218 17.6377C20.097 17.6715 20.2114 17.8396 20.1774 18.0132L18.8863 24.5981C19.9272 24.8289 21.197 24.9721 22.5751 24.9917V17.9521C22.5751 17.7752 22.7198 17.6318 22.8983 17.6318C23.0768 17.6318 23.2215 17.7752 23.2215 17.9521V24.9916C24.5994 24.9722 25.8692 24.8291 26.9103 24.5984L25.6191 18.0132C25.585 17.8396 25.6995 17.6714 25.8747 17.6377C26.05 17.604 26.2196 17.7174 26.2536 17.891L27.5379 24.441C28.8408 24.0719 29.6539 23.5491 29.6539 22.9693H29.6767V22.7102C29.6767 18.552 28.42 14.4886 26.068 11.0417L25.9783 10.9102Z" fill="#D53D76"/>
    <path d="M8.13134 12.0267L7.48368 12.8294H4.68159V25H7.05358L8.133 13.8837L9.2125 25H11.5811V12.8294H8.77899L8.13134 12.0267Z" fill="#D53D76"/>
    <path d="M14.5174 9.53694L16.2627 8.49872L11.6821 1.0418L11.093 0.758789C11.0893 0.770737 11.0864 0.782749 11.0812 0.794443L8.42659 6.69969C8.37464 6.81523 8.259 6.88966 8.13137 6.88966C8.00373 6.88966 7.88809 6.81523 7.83614 6.69969L5.18164 0.794443C5.17638 0.782749 5.17349 0.770674 5.16977 0.758789L4.58067 1.0418L0 8.49872L1.74536 9.53694L4.58067 4.98316L5.0415 9.38078L4.04096 12.1889H7.48371L8.13137 11.1187L8.77902 12.1889H12.2218L11.2212 9.43455L11.682 4.98316L14.5174 9.53694ZM8.13137 10.3419C7.86308 10.3419 7.64559 10.1263 7.64559 9.8603C7.64559 9.59433 7.86308 9.37869 8.13137 9.37869C8.39965 9.37869 8.61714 9.59433 8.61714 9.8603C8.61714 10.1263 8.39965 10.3419 8.13137 10.3419ZM8.13137 8.41553C7.86308 8.41553 7.64559 8.19989 7.64559 7.93391C7.64559 7.66794 7.86308 7.45236 8.13137 7.45236C8.39965 7.45236 8.61714 7.668 8.61714 7.93391C8.61714 8.19995 8.39965 8.41553 8.13137 8.41553Z" fill="#D53D76"/>
    <path d="M8.13137 5.78234L10.4907 0.533854C10.4989 0.515741 10.5089 0.499217 10.5198 0.483392L9.51371 0H6.74908L5.74297 0.483328C5.75387 0.499153 5.76394 0.515677 5.77208 0.53379L8.13137 5.78234Z" fill="#D53D76"/>
    <path d="M2.00921 18.82H1.49207V18.3076C1.49207 18.1307 1.34738 17.9873 1.16888 17.9873C0.990389 17.9873 0.845695 18.1307 0.845695 18.3076V18.82H0.328558C0.150064 18.82 0.00537109 18.9634 0.00537109 19.1403C0.00537109 19.3171 0.150064 19.4605 0.328558 19.4605H0.845695V19.973C0.845695 20.1498 0.990389 20.2932 1.16888 20.2932C1.34738 20.2932 1.49207 20.1498 1.49207 19.973V19.4605H2.00921C2.18776 19.4605 2.33246 19.3171 2.33246 19.1403C2.33246 18.9634 2.1877 18.82 2.00921 18.82Z" fill="#D53D76"/>
    <path d="M29.6768 8.71733H29.1596V8.20489C29.1596 8.02802 29.0149 7.88464 28.8364 7.88464C28.6579 7.88464 28.5133 8.02802 28.5133 8.20489V8.71733H27.9961C27.8176 8.71733 27.6729 8.86071 27.6729 9.03758C27.6729 9.21445 27.8176 9.35783 27.9961 9.35783H28.5133V9.87026C28.5133 10.0471 28.6579 10.1905 28.8364 10.1905C29.0149 10.1905 29.1596 10.0471 29.1596 9.87026V9.35783H29.6768C29.8553 9.35783 30 9.21445 30 9.03758C30 8.86071 29.8553 8.71733 29.6768 8.71733Z" fill="#D53D76"/>
    </svg>
    