<svg width="30" height="36" viewBox="0 0 30 36" fill="none" xmlns="http://www.w3.org/2000/svg">
    <path d="M16.0511 21.8477C17.599 19.6783 17.1446 16.5568 15.001 14.8355L15 14.8345C12.8564 16.5567 12.402 19.6781 13.9489 21.8487V27.492H11.8467V36H18.1532V27.492H16.0511V21.8477Z" fill="#D53D76"/>
    <path d="M19.6744 9.45084C18.5854 9.99774 17.3505 10.6168 15 10.6168C12.6494 10.6168 11.4146 9.99774 10.3255 9.45084C9.31652 8.94409 8.44503 8.50737 6.59126 8.50737H0.0744476C2.28636 9.28602 3.4923 10.6566 4.75291 12.1154C6.25218 13.8494 7.92131 15.75 11.3412 16.5496C11.7799 15.268 12.5649 14.0885 13.6861 13.1876L15 12.1329L16.3138 13.1876C17.4352 14.0883 18.2202 15.2677 18.659 16.5487C22.0704 15.7487 23.7395 13.85 25.2399 12.1175C26.5036 10.6586 27.7117 9.28708 29.9256 8.50737H23.4087C21.5549 8.50737 20.6834 8.94409 19.6744 9.45084Z" fill="#D53D76"/>
    <path d="M15.0001 1.93395C12.9661 0.527466 11.3028 -0.00895755 9.87889 0.000112932C7.41241 0.0158632 5.6641 1.67084 3.95132 3.29361C2.77613 4.40865 1.55302 5.55153 0 6.39796H6.59137C8.94195 6.39796 10.1768 7.01701 11.2658 7.56391C12.2748 8.07066 13.1463 8.50738 15.0001 8.50738C16.8538 8.50738 17.7253 8.07066 18.7343 7.56391C19.8234 7.01701 21.0582 6.39796 23.4088 6.39796H30C28.4351 5.54499 27.2078 4.39965 26.0283 3.28124C24.3416 1.68279 22.62 0.0570671 20.2097 0.00151921C18.7667 -0.0318095 17.077 0.496388 15.0001 1.93395Z" fill="#D53D76"/>
    </svg>
    