<svg width="30" height="30" viewBox="0 0 30 30" fill="none" xmlns="http://www.w3.org/2000/svg">
    <path d="M12.8571 4.28571V11.7857C12.8571 12.0699 12.7443 12.3424 12.5433 12.5433C12.3424 12.7443 12.0699 12.8571 11.7857 12.8571H4.28571C3.14907 12.8571 2.05898 12.4056 1.25526 11.6019C0.451529 10.7982 0 9.70807 0 8.57143V1.07143C0 0.787268 0.112882 0.514746 0.313814 0.313814C0.514746 0.112882 0.787268 0 1.07143 0H8.57143C9.70807 0 10.7982 0.451529 11.6019 1.25526C12.4056 2.05898 12.8571 3.14907 12.8571 4.28571ZM28.9286 0H21.4286C20.2919 0 19.2018 0.451529 18.3981 1.25526C17.5944 2.05898 17.1429 3.14907 17.1429 4.28571V11.7857C17.1429 12.0699 17.2557 12.3424 17.4567 12.5433C17.6576 12.7443 17.9301 12.8571 18.2143 12.8571H25.7143C26.8509 12.8571 27.941 12.4056 28.7447 11.6019C29.5485 10.7982 30 9.70807 30 8.57143V1.07143C30 0.787268 29.8871 0.514746 29.6862 0.313814C29.4853 0.112882 29.2127 0 28.9286 0ZM25.7143 17.1429H18.2143C17.9301 17.1429 17.6576 17.2557 17.4567 17.4567C17.2557 17.6576 17.1429 17.9301 17.1429 18.2143V25.7143C17.1429 26.8509 17.5944 27.941 18.3981 28.7447C19.2018 29.5485 20.2919 30 21.4286 30H28.9286C29.2127 30 29.4853 29.8871 29.6862 29.6862C29.8871 29.4853 30 29.2127 30 28.9286V21.4286C30 20.2919 29.5485 19.2018 28.7447 18.3981C27.941 17.5944 26.8509 17.1429 25.7143 17.1429ZM11.7857 17.1429H4.28571C3.14907 17.1429 2.05898 17.5944 1.25526 18.3981C0.451529 19.2018 0 20.2919 0 21.4286V28.9286C0 29.2127 0.112882 29.4853 0.313814 29.6862C0.514746 29.8871 0.787268 30 1.07143 30H8.57143C9.70807 30 10.7982 29.5485 11.6019 28.7447C12.4056 27.941 12.8571 26.8509 12.8571 25.7143V18.2143C12.8571 17.9301 12.7443 17.6576 12.5433 17.4567C12.3424 17.2557 12.0699 17.1429 11.7857 17.1429Z" fill="#D53D76"/>
    </svg>
    